<?xml version="1.0" encoding="utf-8"?>
<!-- Generator: Adobe Illustrator 16.0.3, SVG Export Plug-In . SVG Version: 6.00 Build 0)  -->
<!DOCTYPE svg PUBLIC "-//W3C//DTD SVG 1.1//EN" "http://www.w3.org/Graphics/SVG/1.1/DTD/svg11.dtd">
<svg version="1.1" id="Calque_1" xmlns="http://www.w3.org/2000/svg" xmlns:xlink="http://www.w3.org/1999/xlink" x="0px" y="0px"
	 width="332.867px" height="130.769px" viewBox="0 0 332.867 130.769" enable-background="new 0 0 332.867 130.769"
	 xml:space="preserve">
<g>
	<path fill="#575756" d="M105.126,80.524c0,0.609-0.211,1.125-0.633,1.547s-0.938,0.633-1.547,0.633
		c-0.61,0-1.131-0.211-1.564-0.633c-0.434-0.422-0.65-0.938-0.65-1.547V45.508c0-0.609,0.216-1.125,0.65-1.547
		c0.434-0.422,0.955-0.633,1.564-0.633c0.609,0,1.125,0.211,1.547,0.633s0.633,0.938,0.633,1.547v2.355
		c3.563-3.023,7.207-4.535,10.934-4.535c4.219,0,7.828,1.5,10.828,4.5c0.726,0.75,1.488,1.665,2.285,2.742
		c0.796-1.078,1.57-1.992,2.32-2.742c3-3,6.609-4.5,10.828-4.5s7.828,1.5,10.828,4.5c2.976,2.977,4.465,6.586,4.465,10.828v21.867
		c0,0.609-0.211,1.125-0.633,1.547s-0.938,0.633-1.547,0.633c-0.61,0-1.125-0.211-1.547-0.633s-0.633-0.938-0.633-1.547V58.657
		c0-3.023-1.078-5.602-3.234-7.734c-2.157-2.156-4.723-3.234-7.699-3.234c-3,0-5.578,1.078-7.734,3.234
		c-2.133,2.133-3.199,4.711-3.199,7.734v21.867c0,0.609-0.217,1.125-0.65,1.547c-0.434,0.422-0.955,0.633-1.564,0.633
		c-0.61,0-1.125-0.211-1.547-0.633s-0.633-0.938-0.633-1.547V58.657c0-3.023-1.067-5.602-3.199-7.734
		c-2.157-2.156-4.734-3.234-7.734-3.234c-3,0-5.578,1.078-7.734,3.234c-2.133,2.133-3.199,4.711-3.199,7.734V80.524z"/>
	<path fill="#575756" d="M163.029,28.563c0-0.609,0.211-1.125,0.633-1.547s0.937-0.633,1.547-0.633c0.609,0,1.13,0.211,1.564,0.633
		c0.434,0.422,0.65,0.938,0.65,1.547v49.781h3.621c0.609,0,1.13,0.211,1.564,0.633c0.434,0.422,0.65,0.938,0.65,1.547
		s-0.217,1.125-0.65,1.547c-0.434,0.422-0.955,0.633-1.564,0.633h-5.836c-0.61,0-1.125-0.211-1.547-0.633s-0.633-0.938-0.633-1.547
		V28.563z"/>
	<path fill="#575756" d="M214.638,75.567c-4.734,4.758-9.832,7.137-15.293,7.137c-5.438,0-10.078-1.922-13.922-5.766
		c-3.845-3.844-5.766-8.484-5.766-13.922s1.921-10.078,5.766-13.922c3.844-3.844,8.484-5.766,13.922-5.766
		c5.437,0,10.077,1.922,13.922,5.766c3.844,3.844,5.766,8.484,5.766,13.922v17.508c0,0.609-0.211,1.125-0.633,1.547
		s-0.938,0.633-1.547,0.633c-0.61,0-1.131-0.211-1.564-0.633c-0.435-0.422-0.65-0.938-0.65-1.547V75.567z M199.345,47.688
		c-4.219,0-7.828,1.5-10.828,4.5c-3.001,3-4.5,6.609-4.5,10.828s1.499,7.828,4.5,10.828c3,3,6.609,4.5,10.828,4.5
		s7.827-1.5,10.828-4.5c2.976-2.977,4.465-6.586,4.465-10.828s-1.489-7.852-4.465-10.828
		C207.172,49.188,203.564,47.688,199.345,47.688z"/>
	<path fill="#39B7B9" d="M261.15,80.524c0,0.609-0.217,1.125-0.65,1.547c-0.435,0.422-0.955,0.633-1.564,0.633
		c-0.61,0-1.125-0.211-1.547-0.633s-0.633-0.938-0.633-1.547v-4.078c-4.313,4.172-8.93,6.258-13.852,6.258
		c-4.992,0-9.294-1.77-12.902-5.309c-3.539-3.563-5.309-7.875-5.309-12.938V45.508c0-0.609,0.211-1.125,0.633-1.547
		s0.937-0.633,1.547-0.633c0.609,0,1.125,0.211,1.547,0.633s0.633,0.938,0.633,1.547v18.949c0,3.844,1.348,7.113,4.043,9.809
		c2.789,2.719,6.059,4.078,9.809,4.078c3.797,0,7.054-1.359,9.773-4.078c2.719-2.695,4.078-5.965,4.078-9.809V45.508
		c0-0.609,0.211-1.125,0.633-1.547s0.937-0.633,1.547-0.633c0.609,0,1.13,0.211,1.564,0.633c0.434,0.422,0.65,0.938,0.65,1.547
		V80.524z"/>
	<path fill="#575756" d="M286.673,78.344c0.609,0,1.13,0.211,1.564,0.633c0.434,0.422,0.65,0.938,0.65,1.547
		s-0.217,1.125-0.65,1.547c-0.435,0.422-0.955,0.633-1.564,0.633c-9.234,0-13.852-4.617-13.852-13.852V47.688h-3.621
		c-0.61,0-1.131-0.211-1.564-0.633c-0.435-0.422-0.65-0.937-0.65-1.547c0-0.609,0.216-1.125,0.65-1.547
		c0.434-0.422,0.954-0.633,1.564-0.633h3.621v-14.73c0-0.609,0.211-1.125,0.633-1.547s0.937-0.633,1.547-0.633
		c0.609,0,1.13,0.211,1.564,0.633c0.434,0.422,0.65,0.938,0.65,1.547v14.73h6.574c0.609,0,1.13,0.211,1.564,0.633
		c0.434,0.422,0.65,0.938,0.65,1.547c0,0.61-0.217,1.125-0.65,1.547c-0.435,0.422-0.955,0.633-1.564,0.633h-6.574v21.164
		C277.216,75.18,280.368,78.344,286.673,78.344z"/>
</g>
<path fill="#39B7B9" d="M95.845,83.75c0,5.014-4.064,9.079-9.079,9.079H33.924c-5.015,0-9.079-4.065-9.079-9.079V30.908
	c0-5.015,4.064-9.08,9.079-9.08h52.842c5.015,0,9.079,4.064,9.079,9.08V83.75z"/>
<path fill="#39B7B9" d="M323.845,111.234c0,2.33-1.889,4.22-4.22,4.22h-24.561c-2.331,0-4.22-1.89-4.22-4.22v-24.56
	c0-2.332,1.889-4.221,4.22-4.221h24.561c2.331,0,4.22,1.889,4.22,4.221V111.234z"/>
<path fill="#FFFFFF" d="M56.278,38.863c0,5.88-4.764,10.644-10.641,10.644l0,0c-5.878,0-10.643-4.764-10.643-10.644l0,0
	c0-5.878,4.765-10.642,10.643-10.642l0,0C51.514,28.221,56.278,32.985,56.278,38.863L56.278,38.863z"/>
<path fill="#FFFFFF" d="M85.862,38.863c0,5.88-4.765,10.644-10.643,10.644l0,0c-5.877,0-10.64-4.764-10.64-10.644l0,0
	c0-5.878,4.763-10.642,10.64-10.642l0,0C81.097,28.221,85.862,32.985,85.862,38.863L85.862,38.863z"/>
<path fill="#39B7B9" d="M237.845,42.704c0,1.727-1.398,3.125-3.125,3.125l0,0c-1.727,0-3.125-1.398-3.125-3.125l0,0
	c0-1.727,1.398-3.125,3.125-3.125l0,0C236.447,39.579,237.845,40.977,237.845,42.704L237.845,42.704z"/>
<path fill="#39B7B9" d="M253.886,42.704c0,1.727-1.398,3.125-3.125,3.125l0,0c-1.726,0-3.125-1.398-3.125-3.125l0,0
	c0-1.727,1.399-3.125,3.125-3.125l0,0C252.488,39.579,253.886,40.977,253.886,42.704L253.886,42.704z"/>
<line fill="none" stroke="#39B7B9" stroke-width="2" stroke-linecap="round" stroke-linejoin="round" stroke-miterlimit="10" x1="36.636" y1="91.954" x2="286.386" y2="91.954"/>
<g>
	<path fill="#FFFFFF" d="M301.992,105.875c0,0.516-0.176,0.949-0.527,1.301c-0.34,0.352-0.768,0.527-1.283,0.527
		s-0.949-0.176-1.301-0.527s-0.527-0.785-0.527-1.301s0.176-0.943,0.527-1.283c0.352-0.352,0.785-0.527,1.301-0.527
		s0.943,0.176,1.283,0.527C301.816,104.932,301.992,105.36,301.992,105.875z"/>
	<path fill="#FFFFFF" d="M309.023,105.875c0,0.516-0.176,0.949-0.527,1.301c-0.34,0.352-0.768,0.527-1.283,0.527
		s-0.949-0.176-1.301-0.527s-0.527-0.785-0.527-1.301s0.176-0.943,0.527-1.283c0.352-0.352,0.785-0.527,1.301-0.527
		s0.943,0.176,1.283,0.527C308.847,104.932,309.023,105.36,309.023,105.875z"/>
	<path fill="#FFFFFF" d="M316.054,105.875c0,0.516-0.176,0.949-0.527,1.301c-0.34,0.352-0.768,0.527-1.283,0.527
		s-0.949-0.176-1.301-0.527s-0.527-0.785-0.527-1.301s0.176-0.943,0.527-1.283c0.352-0.352,0.785-0.527,1.301-0.527
		s0.943,0.176,1.283,0.527C315.878,104.932,316.054,105.36,316.054,105.875z"/>
</g>
<polygon fill="#39B7B9" stroke="#39B7B9" stroke-width="3" stroke-linecap="round" stroke-linejoin="round" stroke-miterlimit="10" points="
	283.803,86.829 289.345,91.579 283.803,96.829 "/>
</svg>
